<?xml version="1.0" encoding="UTF-8" standalone="no"?>
<svg
   width="13.971339"
   height="7"
   fill="none"
   viewBox="0 0 13.971339 7"
   id="serial-port"
   version="1.1"
   sodipodi:docname="serial-port.svg"
   inkscape:version="1.3.2 (091e20ef0f, 2023-11-25, custom)"
   inkscape:export-filename="serial-port.png"
   inkscape:export-xdpi="96"
   inkscape:export-ydpi="96"
   xmlns:inkscape="http://www.inkscape.org/namespaces/inkscape"
   xmlns:sodipodi="http://sodipodi.sourceforge.net/DTD/sodipodi-0.dtd"
   xmlns="http://www.w3.org/2000/svg"
   xmlns:svg="http://www.w3.org/2000/svg">
  <defs
     id="defs2" />
  <sodipodi:namedview
     id="namedview2"
     pagecolor="#ffffff"
     bordercolor="#030303"
     borderopacity="0.65490196"
     inkscape:showpageshadow="2"
     inkscape:pageopacity="0.0"
     inkscape:pagecheckerboard="0"
     inkscape:deskcolor="#d1d1d1"
     inkscape:zoom="53.0625"
     inkscape:cx="7.9905771"
     inkscape:cy="8"
     inkscape:window-width="1920"
     inkscape:window-height="1053"
     inkscape:window-x="0"
     inkscape:window-y="0"
     inkscape:window-maximized="1"
     inkscape:current-layer="serial-port" />
  <path
     fill="#212121"
     d="m 3.9784349,3 c 0.27615,0 0.5,-0.22386 0.5,-0.5 0,-0.27614 -0.22385,-0.5 -0.5,-0.5 -0.27614,0 -0.5,0.22386 -0.5,0.5 0,0.27614 0.22386,0.5 0.5,0.5 z m 1.5,1.5 c 0,0.27614 -0.22385,0.5 -0.5,0.5 -0.27614,0 -0.5,-0.22386 -0.5,-0.5 0,-0.27614 0.22386,-0.5 0.5,-0.5 0.27615,0 0.5,0.22386 0.5,0.5 z m 1.5,0.5 c 0.27615,0 0.5,-0.22386 0.5,-0.5 0,-0.27614 -0.22385,-0.5 -0.5,-0.5 -0.27614,0 -0.5,0.22386 -0.5,0.5 0,0.27614 0.22386,0.5 0.5,0.5 z m 2.50002,-0.5 c 0,0.27614 -0.2239,0.5 -0.50002,0.5 -0.27614,0 -0.5,-0.22386 -0.5,-0.5 0,-0.27614 0.22386,-0.5 0.5,-0.5 0.27612,0 0.50002,0.22386 0.50002,0.5 z M 5.9784349,3 c 0.27615,0 0.5,-0.22386 0.5,-0.5 0,-0.27614 -0.22385,-0.5 -0.5,-0.5 -0.27614,0 -0.5,0.22386 -0.5,0.5 0,0.27614 0.22386,0.5 0.5,0.5 z m 2.5,-0.5 c 0,0.27614 -0.22385,0.5 -0.5,0.5 -0.27614,0 -0.5,-0.22386 -0.5,-0.5 0,-0.27614 0.22386,-0.5 0.5,-0.5 0.27615,0 0.5,0.22386 0.5,0.5 z m 1.50002,0.5 c 0.2761001,0 0.5000001,-0.22386 0.5000001,-0.5 0,-0.27614 -0.2239,-0.5 -0.5000001,-0.5 -0.2762,0 -0.5,0.22386 -0.5,0.5 0,0.27614 0.2238,0.5 0.5,0.5 z"
     id="path1"
     style="fill:#ffffff;fill-opacity:1" />
  <path
     fill="#212121"
     d="M 2.0009349,0 C 0.70642495,0 -0.24704105,1.2111 0.05680495,2.46944 l 0.7244,2.99996 C 0.99802495,6.3674 1.8015849,7 2.7253249,7 h 8.5188301 c 0.9233,0 1.7266,-0.632 1.9438,-1.5294 l 0.7263,-3.00001 C 14.218955,1.21195 13.265355,0 11.970455,0 Z m -0.97207,2.23472 C 0.87694495,1.60555 1.3536749,1 2.0009349,1 h 9.9695201 c 0.6474,0 1.1242,0.60598 0.9719,1.23529 l -0.7263,3.00001 C 12.107455,5.684 11.705755,6 11.244155,6 H 2.7253249 c -0.46187,0 -0.86365,-0.3163 -0.97206,-0.7653 z"
     id="path2"
     style="fill:#ffffff;fill-opacity:1" />
</svg>
